<svg xmlns="http://www.w3.org/2000/svg" version="1.1" xmlns:xlink="http://www.w3.org/1999/xlink" xmlns:svgjs="http://svgjs.dev/svgjs" width="1000" height="1000" viewBox="0 0 1000 1000"><rect width="1000" height="1000" fill="#000000"></rect><g transform="matrix(0.7,0,0,0.7,149.57575757575756,282.1265587044535)"><svg viewBox="0 0 396 247" data-background-color="#ffffff" preserveAspectRatio="xMidYMid meet" height="623" width="1000" xmlns="http://www.w3.org/2000/svg" xmlns:xlink="http://www.w3.org/1999/xlink"><g id="tight-bounds" transform="matrix(1,0,0,1,0.2400000000000091,-0.09999999999999432)"><svg viewBox="0 0 395.52 247.2" height="247.2" width="395.52"><g><svg></svg></g><g><svg viewBox="0 0 395.52 247.2" height="247.2" width="395.52"><g mask="url(&quot;#5f6eb0c9-dc79-4b0c-9b41-3385d1c46079&quot;)"><g><path xmlns="http://www.w3.org/2000/svg" d="M139.388 247.2c-1.407 0-2.11-0.82-2.109-2.461v0c0-2.813 1.36-6.329 4.079-10.55 2.672-4.22 5.884-7.033 9.634-8.439v0l9.846-4.219c3.282-1.641 5.579-4.642 6.892-9.002 1.266-4.313 2.602-11.745 4.009-22.294v0l23.56-166.675c-4.688 0-9.143 0.117-13.363 0.351v0c-4.923 0.469-9.377 1.172-13.362 2.11-3.985 0.938-6.447 1.407-7.384 1.407v0c-1.407 0-2.11-0.703-2.11-2.11v0c0-1.875 1.055-4.337 3.165-7.385v0c2.813-4.454 6.095-7.783 9.846-9.986 3.751-2.25 8.322-3.493 13.713-3.727v0l49.581-1.055c6.329-0.234 11.065-0.82 14.206-1.758 3.188-0.938 5.251-1.407 6.189-1.407v0c1.641 0 2.461 0.703 2.461 2.11v0c0 1.875-0.938 4.22-2.813 7.033v0c-2.579 4.454-4.806 7.502-6.681 9.142-1.875 1.641-5.157 2.696-9.846 3.165v0l-17.23 1.055-26.724 187.07c-1.407 6.329-3.634 11.018-6.681 14.065v0 0.352c2.344 0.469 5.462 1.102 9.353 1.899 3.845 0.844 7.291 1.266 10.338 1.266v0c3.751 0 6.986-0.703 9.706-2.11 2.672-1.407 4.243-2.11 4.711-2.11v0c1.172 0 1.758 0.703 1.759 2.11v0c0 2.344-1.407 5.04-4.22 8.088v0c-8.439 9.377-16.644 14.065-24.614 14.065v0c-2.813 0-7.15-0.82-13.011-2.461v0c-8.908-2.11-15.003-3.165-18.285-3.165v0c-4.454 0-9.424 0.938-14.909 2.813-5.532 1.875-8.767 2.813-9.706 2.813z" fill="#ffffff" fill-rule="nonzero" stroke="none" stroke-width="1" stroke-linecap="butt" stroke-linejoin="miter" stroke-miterlimit="10" stroke-dasharray="" stroke-dashoffset="0" font-family="none" font-weight="none" font-size="none" text-anchor="none" style="mix-blend-mode: normal" data-fill-palette-color="tertiary"></path></g></g><g transform="matrix(1,0,0,1,122.2013284132841,37.08)"><svg viewBox="0 0 151.11734317343178 173.04" height="173.04" width="151.11734317343178"><g><svg viewBox="0 0 151.11734317343178 173.04" height="173.04" width="151.11734317343178"><g><svg viewBox="0 0 151.11734317343178 173.04" height="173.04" width="151.11734317343178"><g><svg viewBox="0 0 151.11734317343178 173.04" height="173.04" width="151.11734317343178"><g id="textblocktransform"><svg viewBox="0 0 151.11734317343178 173.04" height="173.04" width="151.11734317343178" id="textblock"><g><svg viewBox="0 0 151.11734317343178 173.04" height="173.04" width="151.11734317343178"><g transform="matrix(1,0,0,1,0,0)"><svg width="151.11734317343178" viewBox="-1.149999976158142 -38.150001525878906 36.49999809265137 41.650001525878906" height="173.04" data-palette-color="#010c80"><path d="M2.15 0Q1.85 0 1.85-0.35L1.85-0.35Q1.85-0.95 2.43-1.85 3-2.75 3.8-3.05L3.8-3.05 5.2-3.65Q5.9-4 6.18-4.93 6.45-5.85 6.75-8.1L6.75-8.1 10.1-31.8Q9.1-31.8 8.2-31.75L8.2-31.75Q7.15-31.65 6.3-31.45 5.45-31.25 5.25-31.25L5.25-31.25Q4.95-31.25 4.95-31.55L4.95-31.55Q4.95-31.95 5.4-32.6L5.4-32.6Q6-33.55 6.8-34.02 7.6-34.5 8.75-34.55L8.75-34.55 15.8-34.7Q17.15-34.75 17.82-34.95 18.5-35.15 18.7-35.15L18.7-35.15Q19.05-35.15 19.05-34.85L19.05-34.85Q19.05-34.45 18.65-33.85L18.65-33.85Q18.1-32.9 17.7-32.55 17.3-32.2 16.3-32.1L16.3-32.1 13.85-31.95 10.05-5.35Q9.75-4 9.1-3.35L9.1-3.35 9.1-3.3Q9.6-3.2 10.43-3.03 11.25-2.85 11.9-2.85L11.9-2.85Q12.7-2.85 13.28-3.15 13.85-3.45 13.95-3.45L13.95-3.45Q14.2-3.45 14.2-3.15L14.2-3.15Q14.2-2.65 13.6-2L13.6-2Q11.8 0 10.1 0L10.1 0Q9.5 0 8.25-0.35L8.25-0.35Q6.35-0.8 5.65-0.8L5.65-0.8Q4.7-0.8 3.53-0.4 2.35 0 2.15 0L2.15 0ZM21.1 0.5Q19.55 0.5 18.45-0.35 17.35-1.2 17-2.6L17-2.6Q16.9-3 17.32-3.88 17.75-4.75 18.45-5.6L18.45-5.6Q18.85-6.05 19.1-6.05L19.1-6.05Q19.35-6.05 19.5-5.65L19.5-5.65Q21-2.15 23.65-2.15L23.65-2.15Q25-2.15 25.77-2.98 26.55-3.8 26.55-5.2L26.55-5.2Q26.55-7.1 24.4-10.1L24.4-10.1 23.35-11.6Q22.15-13.3 21.67-14.4 21.2-15.5 21.2-16.75L21.2-16.75Q21.2-18.75 22.27-20.35 23.35-21.95 25.1-22.88 26.85-23.8 28.75-23.8L28.75-23.8Q32.35-23.8 32.35-21.35L32.35-21.35Q32.35-20.45 31.7-19.55L31.7-19.55Q31.35-18.95 31.1-18.95L31.1-18.95Q30.8-18.95 30.55-19.55L30.55-19.55Q30-20.5 29.22-20.93 28.45-21.35 27.25-21.35L27.25-21.35Q25.85-21.35 25-20.6 24.15-19.85 24.15-18.7L24.15-18.7Q24.15-18.05 24.57-17.23 25-16.4 26.2-14.7L26.2-14.7 27.25-13.25Q28.65-11.4 29.2-10.08 29.75-8.75 29.75-7.3L29.75-7.3Q29.75-5.45 28.55-3.63 27.35-1.8 25.35-0.65 23.35 0.5 21.1 0.5L21.1 0.5Z" opacity="1" transform="matrix(1,0,0,1,0,0)" fill="#ffffff" class="undefined-text-0" data-fill-palette-color="primary" id="text-0"></path></svg></g></svg></g></svg></g></svg></g><g></g></svg></g></svg></g></svg></g></svg></g><defs><mask id="5f6eb0c9-dc79-4b0c-9b41-3385d1c46079"><rect width="395.52" height="247.2" fill="white"></rect><g transform="matrix(1,0,0,1,122.2013284132841,37.08)" id="clone"><svg viewBox="0 0 151.11734317343178 173.04" height="173.04" width="151.11734317343178"><g><svg viewBox="0 0 151.11734317343178 173.04" height="173.04" width="151.11734317343178"><g><svg viewBox="0 0 151.11734317343178 173.04" height="173.04" width="151.11734317343178"><g><svg viewBox="0 0 151.11734317343178 173.04" height="173.04" width="151.11734317343178"><g id="SvgjsG1080"><svg viewBox="0 0 151.11734317343178 173.04" height="173.04" width="151.11734317343178" id="SvgjsSvg1079"><g><svg viewBox="0 0 151.11734317343178 173.04" height="173.04" width="151.11734317343178"><g transform="matrix(1,0,0,1,0,0)"><svg width="151.11734317343178" viewBox="-1.149999976158142 -38.150001525878906 36.49999809265137 41.650001525878906" height="173.04" data-palette-color="#010c80"><path d="M2.15 0Q1.85 0 1.85-0.35L1.85-0.35Q1.85-0.95 2.43-1.85 3-2.75 3.8-3.05L3.8-3.05 5.2-3.65Q5.9-4 6.18-4.93 6.45-5.85 6.75-8.1L6.75-8.1 10.1-31.8Q9.1-31.8 8.2-31.75L8.2-31.75Q7.15-31.65 6.3-31.45 5.45-31.25 5.25-31.25L5.25-31.25Q4.95-31.25 4.95-31.55L4.95-31.55Q4.95-31.95 5.4-32.6L5.4-32.6Q6-33.55 6.8-34.02 7.6-34.5 8.75-34.55L8.75-34.55 15.8-34.7Q17.15-34.75 17.82-34.95 18.5-35.15 18.7-35.15L18.7-35.15Q19.05-35.15 19.05-34.85L19.05-34.85Q19.05-34.45 18.65-33.85L18.65-33.85Q18.1-32.9 17.7-32.55 17.3-32.2 16.3-32.1L16.3-32.1 13.85-31.95 10.05-5.35Q9.75-4 9.1-3.35L9.1-3.35 9.1-3.3Q9.6-3.2 10.43-3.03 11.25-2.85 11.9-2.85L11.9-2.85Q12.7-2.85 13.28-3.15 13.85-3.45 13.95-3.45L13.95-3.45Q14.2-3.45 14.2-3.15L14.2-3.15Q14.2-2.65 13.6-2L13.6-2Q11.8 0 10.1 0L10.1 0Q9.5 0 8.25-0.35L8.25-0.35Q6.35-0.8 5.65-0.8L5.65-0.8Q4.7-0.8 3.53-0.4 2.35 0 2.15 0L2.15 0ZM21.1 0.5Q19.55 0.5 18.45-0.35 17.35-1.2 17-2.6L17-2.6Q16.9-3 17.32-3.88 17.75-4.75 18.45-5.6L18.45-5.6Q18.85-6.05 19.1-6.05L19.1-6.05Q19.35-6.05 19.5-5.65L19.5-5.65Q21-2.15 23.65-2.15L23.65-2.15Q25-2.15 25.77-2.98 26.55-3.8 26.55-5.2L26.55-5.2Q26.55-7.1 24.4-10.1L24.4-10.1 23.35-11.6Q22.15-13.3 21.67-14.4 21.2-15.5 21.2-16.75L21.2-16.75Q21.2-18.75 22.27-20.35 23.35-21.95 25.1-22.88 26.85-23.8 28.75-23.8L28.75-23.8Q32.35-23.8 32.35-21.35L32.35-21.35Q32.35-20.45 31.7-19.55L31.7-19.55Q31.35-18.95 31.1-18.95L31.1-18.95Q30.8-18.95 30.55-19.55L30.55-19.55Q30-20.5 29.22-20.93 28.45-21.35 27.25-21.35L27.25-21.35Q25.85-21.35 25-20.6 24.15-19.85 24.15-18.7L24.15-18.7Q24.15-18.05 24.57-17.23 25-16.4 26.2-14.7L26.2-14.7 27.25-13.25Q28.65-11.4 29.2-10.08 29.75-8.75 29.75-7.3L29.75-7.3Q29.75-5.45 28.55-3.63 27.35-1.8 25.35-0.65 23.35 0.5 21.1 0.5L21.1 0.5Z" opacity="1" transform="matrix(1,0,0,1,0,0)" fill="#ffffff" class="undefined-text-0" data-fill-palette-color="primary" id="SvgjsPath1078" stroke-width="5" stroke="black" stroke-linejoin="round"></path></svg></g></svg></g></svg></g></svg></g><g></g></svg></g></svg></g></svg></g></mask></defs></svg><rect width="395.52" height="247.2" fill="none" stroke="none" visibility="hidden"></rect></g></svg></g></svg>